<svg width="507" height="137" viewBox="0 0 507 137" fill="none" xmlns="http://www.w3.org/2000/svg">
<path d="M186.2 29.92C188.44 29.92 190.413 30.1333 192.12 30.56C193.827 30.9333 195.107 31.28 195.96 31.6L194.12 39.6C193.213 39.1733 192.147 38.8267 190.92 38.56C189.747 38.2933 188.467 38.16 187.08 38.16C185.533 38.16 184.227 38.4 183.16 38.88C182.093 39.3067 181.24 39.92 180.6 40.72C179.96 41.52 179.507 42.5067 179.24 43.68C178.973 44.8 178.84 46.0267 178.84 47.36V50.16H194.04V58.24H178.84V92H169.16V47.2C169.16 41.8133 170.573 37.6 173.4 34.56C176.227 31.4667 180.493 29.92 186.2 29.92ZM215.911 85.2C218.898 85.2 221.165 85.04 222.711 84.72V74C222.178 73.84 221.405 73.68 220.391 73.52C219.378 73.36 218.258 73.28 217.031 73.28C215.965 73.28 214.871 73.36 213.751 73.52C212.685 73.68 211.698 73.9733 210.791 74.4C209.938 74.8267 209.245 75.44 208.711 76.24C208.178 76.9867 207.911 77.9467 207.911 79.12C207.911 81.4133 208.631 83.0133 210.071 83.92C211.511 84.7733 213.458 85.2 215.911 85.2ZM215.111 49.12C218.311 49.12 221.005 49.52 223.191 50.32C225.378 51.12 227.111 52.24 228.391 53.68C229.725 55.12 230.658 56.88 231.191 58.96C231.778 60.9867 232.071 63.2267 232.071 65.68V91.04C230.578 91.36 228.311 91.7333 225.271 92.16C222.285 92.64 218.898 92.88 215.111 92.88C212.605 92.88 210.311 92.64 208.231 92.16C206.151 91.68 204.365 90.9067 202.871 89.84C201.431 88.7733 200.285 87.3867 199.431 85.68C198.631 83.9733 198.231 81.8667 198.231 79.36C198.231 76.96 198.685 74.9333 199.591 73.28C200.551 71.6267 201.831 70.2933 203.431 69.28C205.031 68.2133 206.871 67.4667 208.951 67.04C211.085 66.56 213.298 66.32 215.591 66.32C216.658 66.32 217.778 66.4 218.951 66.56C220.125 66.6667 221.378 66.88 222.711 67.2V65.6C222.711 64.48 222.578 63.4133 222.311 62.4C222.045 61.3867 221.565 60.5067 220.871 59.76C220.231 58.96 219.351 58.3467 218.231 57.92C217.165 57.4933 215.805 57.28 214.151 57.28C211.911 57.28 209.858 57.44 207.991 57.76C206.125 58.08 204.605 58.4533 203.431 58.88L202.231 51.04C203.458 50.6133 205.245 50.1867 207.591 49.76C209.938 49.3333 212.445 49.12 215.111 49.12ZM254.406 85.04C256.966 85.04 258.832 84.7467 260.006 84.16C261.179 83.52 261.766 82.4533 261.766 80.96C261.766 79.5733 261.126 78.4267 259.846 77.52C258.619 76.6133 256.566 75.6267 253.686 74.56C251.926 73.92 250.299 73.2533 248.806 72.56C247.366 71.8133 246.112 70.96 245.046 70C243.979 69.04 243.126 67.8933 242.486 66.56C241.899 65.1733 241.606 63.4933 241.606 61.52C241.606 57.68 243.019 54.6667 245.846 52.48C248.672 50.24 252.512 49.12 257.366 49.12C259.819 49.12 262.166 49.36 264.406 49.84C266.646 50.2667 268.326 50.6933 269.446 51.12L267.686 58.96C266.619 58.48 265.259 58.0533 263.606 57.68C261.952 57.2533 260.032 57.04 257.846 57.04C255.872 57.04 254.272 57.3867 253.046 58.08C251.819 58.72 251.206 59.7333 251.206 61.12C251.206 61.8133 251.312 62.4267 251.526 62.96C251.792 63.4933 252.219 64 252.806 64.48C253.392 64.9067 254.166 65.36 255.126 65.84C256.086 66.2667 257.259 66.72 258.646 67.2C260.939 68.0533 262.886 68.9067 264.486 69.76C266.086 70.56 267.392 71.4933 268.406 72.56C269.472 73.5733 270.246 74.7467 270.726 76.08C271.206 77.4133 271.446 79.0133 271.446 80.88C271.446 84.88 269.952 87.92 266.966 90C264.032 92.0267 259.819 93.04 254.326 93.04C250.646 93.04 247.686 92.72 245.446 92.08C243.206 91.4933 241.632 91.0133 240.726 90.64L242.406 82.56C243.846 83.1467 245.552 83.7067 247.526 84.24C249.552 84.7733 251.846 85.04 254.406 85.04ZM280.008 39.12L289.688 37.52V50.16H304.568V58.24H289.688V75.28C289.688 78.64 290.221 81.04 291.288 82.48C292.355 83.92 294.168 84.64 296.728 84.64C298.488 84.64 300.035 84.4533 301.368 84.08C302.755 83.7067 303.848 83.36 304.648 83.04L306.248 90.72C305.128 91.2 303.661 91.68 301.848 92.16C300.035 92.6933 297.901 92.96 295.448 92.96C292.461 92.96 289.955 92.56 287.928 91.76C285.955 90.96 284.381 89.8133 283.208 88.32C282.035 86.7733 281.208 84.9333 280.728 82.8C280.248 80.6133 280.008 78.1333 280.008 75.36V39.12ZM328.486 92.8C325.606 92.7467 323.206 92.4267 321.286 91.84C319.419 91.2533 317.926 90.4267 316.806 89.36C315.686 88.24 314.886 86.88 314.406 85.28C313.979 83.6267 313.766 81.76 313.766 79.68V31.52L323.446 29.92V77.84C323.446 79.0133 323.526 80 323.686 80.8C323.899 81.6 324.246 82.2933 324.726 82.88C325.206 83.4133 325.846 83.84 326.646 84.16C327.499 84.4267 328.566 84.64 329.846 84.8L328.486 92.8ZM352.396 85.2C355.382 85.2 357.649 85.04 359.196 84.72V74C358.662 73.84 357.889 73.68 356.876 73.52C355.862 73.36 354.742 73.28 353.516 73.28C352.449 73.28 351.356 73.36 350.236 73.52C349.169 73.68 348.182 73.9733 347.276 74.4C346.422 74.8267 345.729 75.44 345.196 76.24C344.662 76.9867 344.396 77.9467 344.396 79.12C344.396 81.4133 345.116 83.0133 346.556 83.92C347.996 84.7733 349.942 85.2 352.396 85.2ZM351.596 49.12C354.796 49.12 357.489 49.52 359.676 50.32C361.862 51.12 363.596 52.24 364.876 53.68C366.209 55.12 367.142 56.88 367.676 58.96C368.262 60.9867 368.556 63.2267 368.556 65.68V91.04C367.062 91.36 364.796 91.7333 361.756 92.16C358.769 92.64 355.382 92.88 351.596 92.88C349.089 92.88 346.796 92.64 344.716 92.16C342.636 91.68 340.849 90.9067 339.356 89.84C337.916 88.7733 336.769 87.3867 335.916 85.68C335.116 83.9733 334.716 81.8667 334.716 79.36C334.716 76.96 335.169 74.9333 336.076 73.28C337.036 71.6267 338.316 70.2933 339.916 69.28C341.516 68.2133 343.356 67.4667 345.436 67.04C347.569 66.56 349.782 66.32 352.076 66.32C353.142 66.32 354.262 66.4 355.436 66.56C356.609 66.6667 357.862 66.88 359.196 67.2V65.6C359.196 64.48 359.062 63.4133 358.796 62.4C358.529 61.3867 358.049 60.5067 357.356 59.76C356.716 58.96 355.836 58.3467 354.716 57.92C353.649 57.4933 352.289 57.28 350.636 57.28C348.396 57.28 346.342 57.44 344.476 57.76C342.609 58.08 341.089 58.4533 339.916 58.88L338.716 51.04C339.942 50.6133 341.729 50.1867 344.076 49.76C346.422 49.3333 348.929 49.12 351.596 49.12ZM380.41 51.52C382.277 50.9867 384.703 50.48 387.69 50C390.677 49.52 393.983 49.28 397.61 49.28C401.023 49.28 403.877 49.76 406.17 50.72C408.463 51.6267 410.277 52.9333 411.61 54.64C412.997 56.2933 413.957 58.32 414.49 60.72C415.077 63.0667 415.37 65.6533 415.37 68.48V92H405.69V70C405.69 67.76 405.53 65.8667 405.21 64.32C404.943 62.72 404.463 61.44 403.77 60.48C403.13 59.4667 402.223 58.7467 401.05 58.32C399.93 57.84 398.543 57.6 396.89 57.6C395.663 57.6 394.383 57.68 393.05 57.84C391.717 58 390.73 58.1333 390.09 58.24V92H380.41V51.52ZM424.887 71.28C424.887 67.6 425.42 64.3733 426.487 61.6C427.607 58.8267 429.074 56.5333 430.887 54.72C432.7 52.8533 434.78 51.4667 437.127 50.56C439.474 49.6 441.874 49.12 444.327 49.12C450.087 49.12 454.567 50.9067 457.767 54.48C461.02 58.0533 462.647 63.3867 462.647 70.48C462.647 71.0133 462.62 71.6267 462.567 72.32C462.567 72.96 462.54 73.5467 462.487 74.08H434.887C435.154 77.44 436.327 80.0533 438.407 81.92C440.54 83.7333 443.607 84.64 447.607 84.64C449.954 84.64 452.087 84.4267 454.007 84C455.98 83.5733 457.527 83.12 458.647 82.64L459.927 90.56C459.394 90.8267 458.647 91.12 457.687 91.44C456.78 91.7067 455.714 91.9467 454.487 92.16C453.314 92.4267 452.034 92.64 450.647 92.8C449.26 92.96 447.847 93.04 446.407 93.04C442.727 93.04 439.527 92.5067 436.807 91.44C434.087 90.32 431.847 88.8 430.087 86.88C428.327 84.9067 427.02 82.6133 426.167 80C425.314 77.3333 424.887 74.4267 424.887 71.28ZM452.967 66.96C452.967 65.6267 452.78 64.3733 452.407 63.2C452.034 61.9733 451.474 60.9333 450.727 60.08C450.034 59.1733 449.154 58.48 448.087 58C447.074 57.4667 445.847 57.2 444.407 57.2C442.914 57.2 441.607 57.4933 440.487 58.08C439.367 58.6133 438.407 59.3333 437.607 60.24C436.86 61.1467 436.274 62.1867 435.847 63.36C435.42 64.5333 435.127 65.7333 434.967 66.96H452.967ZM472.714 90.152C472.714 90.8053 472.49 91.3373 472.042 91.748C471.613 92.1587 471.09 92.364 470.474 92.364C469.839 92.364 469.307 92.1587 468.878 91.748C468.449 91.3373 468.234 90.8053 468.234 90.152C468.234 89.4987 468.449 88.9667 468.878 88.556C469.307 88.1267 469.839 87.912 470.474 87.912C471.09 87.912 471.613 88.1267 472.042 88.556C472.49 88.9667 472.714 89.4987 472.714 90.152ZM475.532 84.748C475.532 83.46 475.718 82.3307 476.092 81.36C476.484 80.3893 476.997 79.5867 477.632 78.952C478.266 78.2987 478.994 77.8133 479.816 77.496C480.637 77.16 481.477 76.992 482.336 76.992C484.352 76.992 485.92 77.6173 487.04 78.868C488.178 80.1187 488.748 81.9853 488.748 84.468C488.748 84.6547 488.738 84.8693 488.72 85.112C488.72 85.336 488.71 85.5413 488.692 85.728H479.032C479.125 86.904 479.536 87.8187 480.264 88.472C481.01 89.1067 482.084 89.424 483.484 89.424C484.305 89.424 485.052 89.3493 485.724 89.2C486.414 89.0507 486.956 88.892 487.348 88.724L487.796 91.496C487.609 91.5893 487.348 91.692 487.012 91.804C486.694 91.8973 486.321 91.9813 485.892 92.056C485.481 92.1493 485.033 92.224 484.548 92.28C484.062 92.336 483.568 92.364 483.064 92.364C481.776 92.364 480.656 92.1773 479.704 91.804C478.752 91.412 477.968 90.88 477.352 90.208C476.736 89.5173 476.278 88.7147 475.98 87.8C475.681 86.8667 475.532 85.8493 475.532 84.748ZM485.36 83.236C485.36 82.7693 485.294 82.3307 485.164 81.92C485.033 81.4907 484.837 81.1267 484.576 80.828C484.333 80.5107 484.025 80.268 483.652 80.1C483.297 79.9133 482.868 79.82 482.364 79.82C481.841 79.82 481.384 79.9227 480.992 80.128C480.6 80.3147 480.264 80.5667 479.984 80.884C479.722 81.2013 479.517 81.5653 479.368 81.976C479.218 82.3867 479.116 82.8067 479.06 83.236H485.36ZM491.528 84.748C491.528 83.46 491.714 82.3307 492.088 81.36C492.48 80.3893 492.993 79.5867 493.628 78.952C494.262 78.2987 494.99 77.8133 495.812 77.496C496.633 77.16 497.473 76.992 498.332 76.992C500.348 76.992 501.916 77.6173 503.036 78.868C504.174 80.1187 504.744 81.9853 504.744 84.468C504.744 84.6547 504.734 84.8693 504.716 85.112C504.716 85.336 504.706 85.5413 504.688 85.728H495.028C495.121 86.904 495.532 87.8187 496.26 88.472C497.006 89.1067 498.08 89.424 499.48 89.424C500.301 89.424 501.048 89.3493 501.72 89.2C502.41 89.0507 502.952 88.892 503.344 88.724L503.792 91.496C503.605 91.5893 503.344 91.692 503.008 91.804C502.69 91.8973 502.317 91.9813 501.888 92.056C501.477 92.1493 501.029 92.224 500.544 92.28C500.058 92.336 499.564 92.364 499.06 92.364C497.772 92.364 496.652 92.1773 495.7 91.804C494.748 91.412 493.964 90.88 493.348 90.208C492.732 89.5173 492.274 88.7147 491.976 87.8C491.677 86.8667 491.528 85.8493 491.528 84.748ZM501.356 83.236C501.356 82.7693 501.29 82.3307 501.16 81.92C501.029 81.4907 500.833 81.1267 500.572 80.828C500.329 80.5107 500.021 80.268 499.648 80.1C499.293 79.9133 498.864 79.82 498.36 79.82C497.837 79.82 497.38 79.9227 496.988 80.128C496.596 80.3147 496.26 80.5667 495.98 80.884C495.718 81.2013 495.513 81.5653 495.364 81.976C495.214 82.3867 495.112 82.8067 495.056 83.236H501.356Z" fill="#113D5B"/>
<g clip-path="url(#clip0_1569_377)">
<path d="M7.49219 40.6869C7.49219 36.2734 9.83832 32.1948 13.6477 29.9859L62.4602 1.68206C66.2841 -0.535247 70.9987 -0.530077 74.8178 1.69561L123.354 29.9815C127.15 32.1938 129.486 36.2651 129.486 40.6689V95.8961C129.486 100.257 127.195 104.295 123.458 106.522L75.1968 135.282C71.3425 137.579 66.5485 137.595 62.6791 135.324L13.5911 106.51C9.81365 104.293 7.49219 100.232 7.49219 95.8419V40.6869Z" fill="url(#paint0_linear_1569_377)"/>
<g filter="url(#filter0_b_1569_377)">
<path d="M66.0968 123.374C67.2248 124.009 68.6015 124.012 69.733 123.384L112.44 99.6617C115.033 98.2217 114.986 94.4774 112.358 93.103L69.6687 70.777C68.5705 70.2027 67.2586 70.212 66.1687 70.8018L24.4424 93.3832C21.8633 94.7789 21.8329 98.4692 24.3887 99.9071L66.0968 123.374Z" fill="url(#paint1_linear_1569_377)"/>
</g>
<g filter="url(#filter1_b_1569_377)">
<path d="M66.0965 96.0506C67.2246 96.6853 68.6012 96.6891 69.7327 96.0606L112.44 72.3385C115.033 70.8985 114.986 67.1541 112.358 65.7798L69.6685 43.4538C68.5703 42.8794 67.2584 42.8887 66.1684 43.4786L24.4421 66.0599C21.863 67.4557 21.8327 71.1459 24.3884 72.5839L66.0965 96.0506Z" fill="url(#paint2_linear_1569_377)"/>
</g>
<g filter="url(#filter2_b_1569_377)">
<path d="M66.0968 69.3487C67.2248 69.9834 68.6015 69.9872 69.733 69.3587L112.44 45.6366C115.033 44.1966 114.986 40.4522 112.358 39.0779L69.6687 16.7519C68.5705 16.1775 67.2586 16.1868 66.1687 16.7767L24.4424 39.358C21.8633 40.7538 21.8329 44.444 24.3887 45.882L66.0968 69.3487Z" fill="url(#paint3_linear_1569_377)"/>
</g>
</g>
<defs>
<filter id="filter0_b_1569_377" x="-65.471" y="-17.6081" width="267.789" height="229.422" filterUnits="userSpaceOnUse" color-interpolation-filters="sRGB">
<feFlood flood-opacity="0" result="BackgroundImageFix"/>
<feGaussianBlur in="BackgroundImageFix" stdDeviation="43.9804"/>
<feComposite in2="SourceAlpha" operator="in" result="effect1_backgroundBlur_1569_377"/>
<feBlend mode="normal" in="SourceGraphic" in2="effect1_backgroundBlur_1569_377" result="shape"/>
</filter>
<filter id="filter1_b_1569_377" x="-65.4713" y="-44.9314" width="267.789" height="229.422" filterUnits="userSpaceOnUse" color-interpolation-filters="sRGB">
<feFlood flood-opacity="0" result="BackgroundImageFix"/>
<feGaussianBlur in="BackgroundImageFix" stdDeviation="43.9804"/>
<feComposite in2="SourceAlpha" operator="in" result="effect1_backgroundBlur_1569_377"/>
<feBlend mode="normal" in="SourceGraphic" in2="effect1_backgroundBlur_1569_377" result="shape"/>
</filter>
<filter id="filter2_b_1569_377" x="-65.471" y="-71.6333" width="267.789" height="229.422" filterUnits="userSpaceOnUse" color-interpolation-filters="sRGB">
<feFlood flood-opacity="0" result="BackgroundImageFix"/>
<feGaussianBlur in="BackgroundImageFix" stdDeviation="43.9804"/>
<feComposite in2="SourceAlpha" operator="in" result="effect1_backgroundBlur_1569_377"/>
<feBlend mode="normal" in="SourceGraphic" in2="effect1_backgroundBlur_1569_377" result="shape"/>
</filter>
<linearGradient id="paint0_linear_1569_377" x1="68.7973" y1="135.915" x2="68.7605" y2="2.42314" gradientUnits="userSpaceOnUse">
<stop stop-color="#1DDCDB"/>
<stop offset="1" stop-color="#9B1BFF"/>
<stop offset="1" stop-color="#9B1BFF"/>
</linearGradient>
<linearGradient id="paint1_linear_1569_377" x1="68.5969" y1="142.272" x2="56.9157" y2="50.7735" gradientUnits="userSpaceOnUse">
<stop stop-color="#FEF8FF" stop-opacity="0.53"/>
<stop offset="1" stop-color="#FEF8FF" stop-opacity="0"/>
</linearGradient>
<linearGradient id="paint2_linear_1569_377" x1="68.5966" y1="114.949" x2="56.9155" y2="23.4503" gradientUnits="userSpaceOnUse">
<stop stop-color="#FEF8FF" stop-opacity="0.53"/>
<stop offset="1" stop-color="#FEF8FF" stop-opacity="0"/>
</linearGradient>
<linearGradient id="paint3_linear_1569_377" x1="68.5969" y1="88.2469" x2="56.9157" y2="-3.25162" gradientUnits="userSpaceOnUse">
<stop stop-color="#FEF8FF" stop-opacity="0.53"/>
<stop offset="1" stop-color="#FEF8FF" stop-opacity="0"/>
</linearGradient>
<clipPath id="clip0_1569_377">
<rect width="137" height="137" fill="white"/>
</clipPath>
</defs>
</svg>
